<?xml version="1.0" standalone="no"?>
<!DOCTYPE svg PUBLIC "-//W3C//DTD SVG 20010904//EN"
 "http://www.w3.org/TR/2001/REC-SVG-20010904/DTD/svg10.dtd">
<svg version="1.0" xmlns="http://www.w3.org/2000/svg"
 width="463.000000pt" height="105.000000pt" viewBox="0 0 463.000000 105.000000"
 preserveAspectRatio="xMidYMid meet">

<g transform="translate(0.000000,105.000000) scale(0.100000,-0.100000)"
fill="#000000" stroke="none">
<path d="M444 1040 c-210 -31 -387 -190 -433 -390 -19 -83 -12 -260 11 -260 5
0 24 11 41 24 48 36 127 73 226 106 120 40 121 40 121 -17 0 -48 0 -48 -53
-76 -110 -57 -167 -127 -167 -204 0 -106 130 -201 287 -211 196 -12 366 71
472 229 57 85 81 169 81 283 0 155 -48 273 -154 374 -118 114 -275 165 -432
142z m46 -266 l0 -207 78 6 c42 4 106 3 142 -1 55 -6 65 -10 68 -27 3 -19 -5
-22 -110 -32 -62 -7 -128 -17 -145 -23 l-33 -12 0 -124 0 -125 -87 3 -88 3 -3
65 c-2 52 0 67 14 77 34 25 44 16 44 -37 l0 -50 35 0 35 0 0 320 0 320 -35 0
-35 0 0 -179 c0 -154 -2 -180 -16 -185 -44 -17 -44 -17 -44 204 l0 210 90 0
90 0 0 -206z m368 -60 l2 -171 48 -18 c79 -30 100 -58 22 -30 -71 25 -70 27
-70 -85 l0 -100 -90 0 -90 0 0 95 0 95 30 0 30 0 0 -70 0 -70 30 0 30 0 0 235
0 235 -30 0 -30 0 0 -121 0 -120 -27 3 -28 3 -3 134 c-1 74 0 141 3 148 3 10
25 13 87 11 l83 -3 3 -171z"/>
<path d="M3147 648 l-146 -253 150 -3 c83 -1 215 -1 295 0 l144 3 -141 245
c-78 135 -145 249 -149 253 -4 4 -73 -106 -153 -245z m233 -24 l80 -139 -161
-3 c-89 -1 -164 -1 -166 1 -2 2 33 68 78 146 45 78 83 140 85 138 3 -2 40 -66
84 -143z"/>
<path d="M1630 765 c0 -21 5 -25 30 -25 l30 0 0 -150 0 -150 -30 0 c-25 0 -30
-4 -30 -25 l0 -25 190 0 190 0 0 90 c0 89 0 90 -25 90 -23 0 -24 -4 -27 -62
l-3 -63 -100 0 c-119 0 -111 -14 -100 173 l7 122 44 0 c40 0 44 2 44 25 l0 25
-110 0 -110 0 0 -25z"/>
<path d="M1200 755 c0 -18 5 -25 20 -25 19 0 20 -7 20 -150 0 -143 -1 -150
-20 -150 -11 0 -20 -7 -20 -15 0 -13 26 -15 170 -15 l170 0 0 65 c0 63 -1 65
-25 65 -23 0 -25 -4 -25 -45 l0 -45 -90 0 -90 0 0 60 0 60 50 0 c43 0 50 -3
50 -20 0 -13 7 -20 20 -20 18 0 20 7 20 65 0 58 -2 65 -20 65 -13 0 -20 -7
-20 -20 0 -17 -7 -20 -50 -20 l-50 0 0 65 0 66 88 -3 87 -3 3 -42 c3 -35 7
-43 23 -43 17 0 19 7 19 65 l0 65 -165 0 -165 0 0 -25z"/>
<path d="M2090 755 c0 -20 5 -25 25 -25 l26 0 -3 -147 c-3 -145 -3 -148 -25
-151 -13 -2 -23 -10 -23 -18 0 -12 29 -14 170 -14 l170 0 0 65 c0 63 -1 65
-25 65 -23 0 -25 -4 -25 -45 l0 -46 -87 3 -88 3 -3 58 -3 57 51 0 c43 0 50 -3
50 -20 0 -13 7 -20 20 -20 18 0 20 7 20 65 0 58 -2 65 -20 65 -14 0 -20 -7
-20 -21 0 -18 -5 -20 -47 -17 l-48 3 0 60 0 60 88 3 87 3 0 -46 c0 -41 2 -45
25 -45 24 0 25 2 25 65 l0 65 -170 0 -170 0 0 -25z"/>
<path d="M2639 766 c-87 -31 -139 -98 -139 -179 0 -73 62 -143 149 -167 47
-13 173 -11 236 3 l50 12 3 48 c3 39 6 47 23 47 14 0 19 7 19 30 l0 30 -125 0
-125 0 0 -30 0 -30 66 0 c65 0 65 0 62 -27 -3 -24 -9 -29 -48 -36 -127 -22
-230 33 -230 125 0 77 66 131 160 131 76 0 130 -24 130 -57 0 -24 4 -26 40
-26 l40 0 0 70 0 70 -39 0 c-22 0 -41 -5 -43 -11 -3 -8 -14 -8 -43 0 -53 14
-141 13 -186 -3z"/>
<path d="M4190 715 l0 -65 34 0 c33 0 35 2 38 38 3 37 3 37 48 37 l45 0 0
-125 0 -125 -42 -3 c-38 -3 -43 -6 -43 -28 l0 -24 125 0 125 0 0 25 c0 23 -4
25 -45 25 l-45 0 0 130 0 130 45 0 45 0 0 -40 c0 -39 1 -40 35 -40 l35 0 0 65
0 65 -200 0 -200 0 0 -65z"/>
<path d="M3660 740 c0 -27 3 -30 30 -30 l30 0 0 -125 0 -125 -30 0 c-27 0 -30
-3 -30 -30 l0 -30 100 0 100 0 0 30 c0 28 -3 30 -35 30 l-35 0 0 101 0 101 98
-128 c92 -121 100 -129 135 -132 l37 -3 0 155 0 156 30 0 c27 0 30 3 30 30 l0
30 -105 0 -105 0 0 -30 c0 -28 2 -30 40 -30 l40 0 0 -96 c0 -52 -4 -93 -9 -90
-5 3 -48 60 -95 126 l-87 120 -70 0 -69 0 0 -30z"/>
<path d="M1240 155 c0 -60 3 -75 15 -75 12 0 15 15 15 75 0 60 -3 75 -15 75
-12 0 -15 -15 -15 -75z"/>
<path d="M1330 155 l0 -75 69 0 c86 0 115 19 115 75 0 56 -29 75 -115 75 l-69
0 0 -75z m140 40 c11 -10 20 -28 20 -40 0 -39 -23 -57 -78 -63 l-52 -5 0 68 0
68 45 -6 c25 -2 55 -13 65 -22z"/>
<path d="M1560 155 l0 -75 83 2 82 2 -70 5 c-66 6 -70 7 -70 31 0 24 4 25 65
31 l65 5 -65 5 c-61 4 -65 5 -65 29 0 24 4 25 70 31 l70 5 -82 2 -83 2 0 -75z"/>
<path d="M1823 218 c-15 -19 -73 -124 -73 -132 0 -15 29 -4 35 14 9 29 104 29
123 0 7 -11 19 -20 26 -20 10 0 2 23 -27 75 -41 74 -63 90 -84 63z m42 -38
c20 -39 20 -40 -20 -40 l-35 0 17 35 c9 19 18 35 20 35 1 0 9 -13 18 -30z"/>
<path d="M2073 214 c-3 -9 -1 -24 5 -34 9 -14 6 -19 -14 -29 -34 -15 -29 -51
10 -70 23 -11 36 -11 68 -2 28 9 43 9 52 2 17 -14 29 -1 15 15 -6 8 -9 20 -6
28 8 20 -4 28 -20 14 -11 -9 -18 -8 -31 5 -15 16 -15 18 2 30 10 7 17 22 15
33 -6 26 -86 34 -96 8z m67 -4 c13 -9 12 -12 -5 -25 -17 -14 -21 -13 -35 0
-13 14 -13 17 0 25 19 12 22 12 40 0z m-10 -80 c21 -17 23 -21 10 -30 -23 -16
-64 -8 -68 14 -3 16 12 36 28 36 3 0 16 -9 30 -20z"/>
<path d="M2355 221 l40 -6 3 -67 c2 -52 6 -68 17 -68 12 0 15 15 15 69 l0 70
38 4 c20 2 -6 4 -58 4 -59 0 -80 -2 -55 -6z"/>
<path d="M2540 155 l0 -75 83 2 82 2 -70 5 c-66 6 -70 7 -70 31 0 24 4 25 65
31 l65 5 -65 5 c-61 4 -65 5 -65 29 0 24 4 25 70 31 l70 5 -82 2 -83 2 0 -75z"/>
<path d="M2775 218 c-11 -6 -23 -16 -27 -22 -11 -16 -10 -64 2 -86 13 -24 74
-44 113 -36 31 6 67 32 67 48 0 14 -19 9 -40 -12 -28 -28 -75 -26 -106 5 -29
29 -26 58 8 88 25 21 58 22 84 2 10 -8 28 -14 39 -14 19 0 19 1 -4 19 -26 23
-103 27 -136 8z"/>
<path d="M2970 155 c0 -60 3 -75 15 -75 10 0 15 11 15 35 l0 35 60 0 60 0 0
-35 c0 -24 5 -35 15 -35 12 0 15 15 15 75 0 60 -3 75 -15 75 -10 0 -15 -10
-15 -30 l0 -30 -60 0 -60 0 0 30 c0 20 -5 30 -15 30 -12 0 -15 -15 -15 -75z"/>
<path d="M3200 155 c0 -60 3 -75 15 -75 12 0 15 13 15 57 l0 57 58 -57 c80
-79 92 -77 92 18 0 60 -3 75 -15 75 -12 0 -15 -13 -15 -57 l0 -57 -58 57 c-80
79 -92 77 -92 -18z"/>
<path d="M3445 205 c-70 -69 24 -158 130 -123 50 16 73 56 55 97 -14 36 -48
51 -111 51 -40 0 -55 -5 -74 -25z m148 -16 c24 -30 21 -54 -9 -78 -62 -49
-148 -7 -130 63 12 48 104 58 139 15z"/>
<path d="M3680 155 l0 -75 73 2 c69 2 70 2 15 5 l-58 4 0 69 c0 56 -3 70 -15
70 -12 0 -15 -15 -15 -75z"/>
<path d="M3883 218 c-12 -6 -27 -23 -33 -38 -36 -87 114 -147 186 -75 31 31
31 69 -1 100 -20 21 -34 25 -77 24 -29 0 -63 -5 -75 -11z m121 -19 c49 -38 27
-97 -40 -106 -33 -4 -45 -1 -69 20 -26 22 -28 28 -20 53 19 52 83 69 129 33z"/>
<path d="M4115 205 c-72 -71 18 -153 136 -125 45 11 49 15 49 41 0 29 -1 29
-52 27 -44 -1 -46 -2 -15 -5 28 -3 37 -9 37 -23 0 -33 -100 -39 -137 -8 -14
11 -17 56 -5 74 24 36 87 43 125 14 18 -15 28 -17 33 -9 13 21 -28 39 -88 39
-49 0 -63 -4 -83 -25z"/>
<path d="M4368 187 c32 -32 42 -51 42 -75 0 -22 5 -32 15 -32 10 0 15 10 15
32 0 24 10 43 42 75 34 35 39 43 23 43 -11 0 -33 -16 -49 -36 l-28 -36 -37 36
c-53 51 -74 45 -23 -7z"/>
</g>
</svg>
